<?xml version="1.0" encoding="UTF-8"?>
<!DOCTYPE svg PUBLIC "-//W3C//DTD SVG 1.1//EN" "http://www.w3.org/Graphics/SVG/1.1/DTD/svg11.dtd">
<svg xmlns="http://www.w3.org/2000/svg" xml:space="preserve" width="83.82mm" height="83.82mm" style="shape-rendering:geometricPrecision; text-rendering:geometricPrecision; image-rendering:optimizeQuality; fill-rule:evenodd; clip-rule:evenodd"
viewBox="0 0 8382 8382"
 xmlns:xlink="http://www.w3.org/1999/xlink"
 xmlns:svg="http://www.w3.org/2000/svg">
 <defs>
  <style type="text/css">
   <![CDATA[
    .fil0 {fill:black;fill-rule:nonzero}
    .fil1 {fill:white;fill-rule:nonzero}
   ]]>
  </style>
 </defs>
 <g id="Layer_x0020_1">
  <metadata id="CorelCorpID_0Corel-Layer"/>
 </g>
 <g id="Layer_x0020_1_0">
  <metadata id="CorelCorpID_1Corel-Layer"/>
  <g id="_344587272">
   <path class="fil0" d="M8384 4191c0,2316 -1877,4193 -4193,4193 -2316,0 -4193,-1877 -4193,-4193 0,-2316 1877,-4193 4193,-4193 2316,0 4193,1877 4193,4193z"/>
   <path class="fil1" d="M3097 2045c807,-412 1777,-336 2510,197l-59 30 -393 200c-611,-341 -1356,-333 -1959,20 -603,354 -974,1000 -975,1699 0,86 6,172 17,258l3311 -1687 686 -349 804 -410 0 492 -811 413 -392 200 -3491 1779 -194 99 -197 101 -609 311 0 -492 207 -106c158,-80 251,-247 238,-424 -5,-61 -7,-122 -7,-183 0,-906 508,-1735 1315,-2147z"/>
   <path class="fil1" d="M7039 2987l0 491 -207 106c-157,80 -251,247 -238,424 5,61 7,123 7,185 0,906 -509,1735 -1316,2146 -807,411 -1777,335 -2509,-197l426 -217 24 -13c611,342 1357,335 1961,-18 604,-354 976,-1001 976,-1701 0,-87 -6,-173 -17,-259l-3315 1689 -686 349 -802 408 0 -492 807 -411 392 -200 4496 -2289z"/>
  </g>
 </g>
</svg>
